# xmcd
#
# Track frame offsets: 
#        150
#        21326
#        38484
#        56261
#        80605
#        98663
#        121849
#        140692
#        163016
#        181708
#        195786
#        213218
#        226459
#        243262
#
# Disc length: 3492 seconds
#
# Revision: 0
# Processed by: cddbd v1.5.2PL0 Copyright (c) Steve Scherf et al.
# Submitted via: ExactAudioCopy v0.99pb4
#
DISCID=a60da20e
DTITLE=Various Artist - SingiN' HalleluyaH
DYEAR=2004
DGENRE=Gospel
TTITLE0=Oh Happy Day
TTITLE1=Holy Groove
TTITLE2=Let It Be
TTITLE3=We Are The World
TTITLE4=Higher And Higher
TTITLE5=I Wanna Know What Love Is
TTITLE6=Swing Low Sweet Chariot
TTITLE7=Saved
TTITLE8=Amazing Grace
TTITLE9=I Will Follow Him
TTITLE10=What A Wonderful World
TTITLE11=Venice Gospel Ensamble
TTITLE12=We Shall Overcome
TTITLE13=Singin' Factory
EXTD=
EXTT0=
EXTT1=
EXTT2=
EXTT3=
EXTT4=
EXTT5=
EXTT6=
EXTT7=
EXTT8=
EXTT9=
EXTT10=
EXTT11=
EXTT12=
EXTT13=
PLAYORDER=
